<svg xmlns="http://www.w3.org/2000/svg" viewBox="0 0 24 24" fill="#111" role="img">
  <path d="M12 .5a12 12 0 0 0-3.79 23.4c.6.11.82-.26.82-.57v-2c-3.34.73-4.04-1.61-4.04-1.61-.55-1.39-1.34-1.77-1.34-1.77-1.1-.75.08-.74.08-.74 1.22.09 1.87 1.26 1.87 1.26 1.08 1.86 2.84 1.32 3.53 1 .11-.8.42-1.33.76-1.64-2.67-.31-5.48-1.34-5.48-5.96 0-1.32.47-2.4 1.25-3.24-.13-.31-.54-1.56.12-3.25 0 0 1.01-.32 3.3 1.24a11.5 11.5 0 0 1 6 0c2.28-1.56 3.29-1.24 3.29-1.24.66 1.69.25 2.94.12 3.25.78.84 1.24 1.92 1.24 3.24 0 4.64-2.81 5.64-5.49 5.95.44.38.83 1.12.83 2.26v3.35c0 .31.21.68.82.57A12 12 0 0 0 12 .5Z"/>
</svg>

