<svg xmlns="http://www.w3.org/2000/svg" viewBox="0 0 24 24" fill="none">
  <path fill="#181717" d="M12 .5C5.65.5.5 5.65.5 12.02c0 5.1 3.3 9.42 7.88 10.95.58.12.8-.25.8-.56 0-.28-.01-1.04-.02-2.05-3.2.7-3.87-1.54-3.87-1.54-.53-1.34-1.3-1.7-1.3-1.7-1.06-.74.08-.72.08-.72 1.17.09 1.78 1.2 1.78 1.2 1.04 1.78 2.74 1.27 3.4.97.1-.76.41-1.27.74-1.56-2.55-.29-5.23-1.28-5.23-5.7 0-1.26.45-2.28 1.2-3.08-.12-.29-.52-1.46.11-3.04 0 0 .98-.31 3.2 1.18a11.1 11.1 0 0 1 5.82 0c2.22-1.5 3.2-1.18 3.2-1.18.63 1.58.23 2.75.12 3.04.75.8 1.2 1.82 1.2 3.08 0 4.43-2.69 5.41-5.25 5.7.42.36.8 1.08.8 2.18 0 1.58-.01 2.85-.01 3.24 0 .31.21.69.81.57 4.58-1.53 7.88-5.85 7.88-10.95C23.5 5.65 18.35.5 12 .5Z"/>
</svg>

